#!OML:ASF F:\VICON\USERDATA\INSTALL\rory3\rory3.ASF
:FULLY-SPECIFIED
:DEGREES
9
root 0.5777800398385295 18.04899255064891 -20.452686859414754 -2.8738951349849184 -2.608198655644219 -6.245669827273444
lfemur -26.15328813838016 2.5240010656221945 -14.28670781655202
ltibia 62.41478244533627
lfoot -7.6615977940831215 -1.2917994518777012
ltoes -4.227429014359972
rfemur -6.580614197628353 7.085800633848839 33.6709883310244
rtibia 29.72990354931064
rfoot -16.974590851295478 -8.053316819318814
rtoes 2.611541423784648
lowerback 10.699689517960408 0.9160255956905348 5.22413078825617
upperback 0.30228996041313805 2.0228465489456817 2.817288124086474
thorax -5.617764393180249 0.8920610836899092 -0.29468212374713054
lowerneck -15.507017432791356 -3.141944838255056 -1.776053222634768
upperneck 21.462195949648873 -4.053335187641671 0.5176861442056111
head 9.372043286199105 -1.9773628365279456 -0.03504501062017193
lclavicle -2.7971981668178528e-15 -4.16007625176034e-16
lhumerus -33.77039387761872 -1.2597563095205917 85.25738789015833
lradius 27.344195608007446
lwrist 6.272994254372587
lhand -26.397003596734976 21.042707219692566
lfingers 7.1250199999999975
lthumb 0.16230342230128936 51.02230712655479
rclavicle -2.7971981668178528e-15 -4.16007625176034e-16
rhumerus -26.319805136194635 -12.515109142608159 -80.31169591825538
rradius 26.921693544135202
rwrist 2.4297293621184823
rhand -19.143886578347022 21.762102701343544
rfingers 7.1250199999999975
rthumb 7.166223449185669 -8.096597003154145
10
root 0.5966295960129728 17.968997016639197 -19.63458588430656 -2.3271494440697094 -3.1075870645077006 -7.048357849475114
lfemur -28.690386193267912 1.7848036498641 -13.23150958795274
ltibia 52.445289594649296
lfoot -8.443586845217764 3.0408243991116235
ltoes 0.5702000642970382
rfemur -3.7877962788317365 6.757851677965638 34.58428722136577
rtibia 29.218604262711267
rfoot -18.783389418464814 -7.48657778657498
rtoes 4.795378063008808
lowerback 10.830187792762008 1.246606626315195 6.40063804635198
upperback 0.6175827022456013 2.589414359182881 2.7098892428759562
thorax -5.278692355616763 1.151844924038405 -1.1468116583382355
lowerneck -17.109295299673555 -3.2146629009460383 -1.6494348013739295
upperneck 21.472295843780707 -4.121224030835519 0.37412271135549846
head 9.667675455575742 -2.0046116029720666 -0.14204678546694358
lclavicle -2.797198199837511e-15 -4.160076222897332e-16
lhumerus -33.77519381229098 -0.836035135327291 85.15008840026718
lradius 26.589397265886856
lwrist 5.372537168429602
lhand -27.027100411827877 23.67099968946637
lfingers 7.1250199999999975
lthumb -0.446286409098134 53.6502996569972
rclavicle -2.797198199837511e-15 -4.160076222897332e-16
rhumerus -24.173510894445347 -9.954883544241087 -81.57379155407128
rradius 29.066986881891722
rwrist -0.0005720006708882508
rhand -19.514983351308178 22.40439997205765
rfingers 7.1250199999999975
rthumb 6.808076571046921 -7.466179715699228
11
root 0.6200710303394708 17.915999981284873 -18.785086548933307 -1.3886368626110863 -3.547265744810726 -7.985235389385515
lfemur -29.66178632477985 0.17096393387403896 -11.483012111149415
ltibia 39.59389539837323
lfoot -10.08769504326439 6.987019284152833
ltoes -4.436498760257291
rfemur -0.4918110739457777 6.916541187191012 35.65448492355469
rtibia 26.94690582032011
rfoot -19.634787709706224 -7.803157165820227
rtoes 4.158619060052252
lowerback 10.142296525709822 1.424885548109308 7.434536031095522
upperback 0.2986100591700084 2.9115830404236127 2.8464277640432005
thorax -5.16793497758941 1.2845538067925495 -1.6047395929680466
lowerneck -16.09200936040504 -3.096056053430113 -1.7799631548062265
upperneck 20.98070137386836 -3.9029778013814025 0.2542039842929462
head 9.305015056674781 -1.934594761763756 -0.1108186294420295
lclavicle -2.7971982037957885e-15 -4.1600763908271605e-16
lhumerus -35.27299145430513 1.2010990476151946 84.53549200831225
lradius 25.850398872622733
lwrist 4.742019212488993
lhand -26.949400803451258 23.269600850507025
lfingers 7.1250199999999975
lthumb -0.37126479816538616 53.24900082669475
rclavicle -2.7971982037957885e-15 -4.1600763908271605e-16
rhumerus -23.290413227128198 -7.67269746715024 -82.07698981110856
rradius 30.21178338418008
rwrist -1.1024820659792454
rhand -19.570782950014085 23.26989631182925
rfingers 7.1250199999999975
rthumb 6.7541670565604015 -6.60235340188034
12
root 0.6557551810787668 17.82650498251397 -17.906788170774412 -0.5452295328582017 -5.169980695869288 -8.816243421575557
lfemur -28.345586581004305 -1.8992721338789678 -8.945245558852047
ltibia 24.689004024057848
lfoot -8.135397109846053 10.411184420640446
ltoes 0.9736105901014631
rfemur 3.099798849681836 7.355679596258016 36.35848442272572
rtibia 24.88260609818391
rfoot -20.637587065544835 -7.193308328339929
rtoes 1.2621035528343372
lowerback 9.910909458561955 2.1424112893178826 8.375453547818854
upperback 0.11456889395914849 3.9522091297177155 2.7277689839418002
thorax -5.080267033952885 1.7702098029182496 -2.377976606394135
lowerneck -15.966711124373749 -3.1571644198769917 -1.547546062328301
upperneck 20.908702182000017 -4.068164951645413 0.33297015037206545
head 9.254766388347551 -1.9848224974888922 -0.14020682545101767
lclavicle -2.7971981049951853e-15 -4.1600764551139916e-16
lhumerus -36.21249015307976 2.490036652447329 83.73499652281859
lradius 24.984500717117825
lwrist 4.282680719828852
lhand -26.888101112434388 19.55361143771865
lfingers 7.1250199999999975
lthumb -0.31204811748036587 49.53311155787285
rclavicle -2.7971981049951853e-15 -4.1600764551139916e-16
rhumerus -22.17511626980444 -6.603458716700812 -82.72258762979573
rradius 30.895081347241806
rwrist -1.2666413417258893
rhand -20.635573965567183 21.80280252680193
rfingers 7.1250199999999975
rthumb 5.726196118409621 -8.099797040328728
